<?xml version="1.0" encoding="UTF-8" standalone="no"?>
<!-- Created with Inkscape (http://www.inkscape.org/) -->

<svg
   width="123.63665mm"
   height="124.22459mm"
   viewBox="0 0 123.63665 124.2246"
   version="1.1"
   id="svg5"
   xml:space="preserve"
   xmlns="http://www.w3.org/2000/svg"
   xmlns:svg="http://www.w3.org/2000/svg"><defs
     id="defs2" /><g
     id="layer1"
     transform="translate(-243.27905,-21.464147)"><g
       id="g22233"
       style="fill:#abf0ff;fill-opacity:1;fill-rule:nonzero;stroke:#000000;stroke-width:1.0006;stroke-dasharray:none;stroke-opacity:1"
       transform="matrix(0.43910734,-0.25351873,0.2021173,0.35007746,262.21468,-33.854339)"><path
         style="fill:#abf0ff;fill-opacity:1;fill-rule:nonzero;stroke:#000000;stroke-width:0.264999;stroke-dasharray:none;stroke-opacity:1"
         d="M -43.957157,303.36221 C -123.7741,282.25122 -128.40117,188.84226 -128.40117,188.84226 c 0,0 44.983769,-15.24249 71.719576,37.59493 26.794846,52.95411 12.724437,76.92502 12.724437,76.92502 z"
         id="path8071"
         transform="matrix(0.86602542,0.62715741,-0.39862398,0.86602537,112.93655,68.207962)" /><path
         style="fill:#abf0ff;fill-opacity:1;fill-rule:nonzero;stroke:#000000;stroke-width:0.264999;stroke-dasharray:none;stroke-opacity:1"
         d="M -43.957157,303.36221 C -123.7741,282.25122 -128.40117,188.84226 -128.40117,188.84226 c 0,0 44.983769,-15.24249 71.719576,37.59493 26.794846,52.95411 12.724437,76.92502 12.724437,76.92502 z"
         id="path8075"
         transform="matrix(0.5,1.0862685,-0.690437,0.49999999,187.17025,197.89859)" /><path
         style="fill:#abf0ff;fill-opacity:1;fill-rule:nonzero;stroke:#000000;stroke-width:0.264999;stroke-dasharray:none;stroke-opacity:1"
         d="M -43.957157,303.36221 C -123.7741,282.25122 -128.40117,188.84226 -128.40117,188.84226 c 0,0 44.983769,-15.24249 71.719576,37.59493 26.794846,52.95411 12.724437,76.92502 12.724437,76.92502 z"
         id="path8079"
         transform="matrix(2.8407194e-8,1.2543148,-0.79724799,2.9916188e-8,195.95102,357.73419)" /><path
         style="fill:#abf0ff;fill-opacity:1;fill-rule:nonzero;stroke:#000000;stroke-width:0.264999;stroke-dasharray:none;stroke-opacity:1"
         d="M -43.957157,303.36221 C -123.7741,282.25122 -128.40117,188.84226 -128.40117,188.84226 c 0,0 44.983769,-15.24249 71.719576,37.59493 26.794846,52.95411 12.724437,76.92502 12.724437,76.92502 z"
         id="path8083"
         transform="matrix(-0.49999999,1.0862685,-0.69043701,-0.49999997,143.52463,503.21728)" /><path
         style="fill:#abf0ff;fill-opacity:1;fill-rule:nonzero;stroke:#000000;stroke-width:0.264999;stroke-dasharray:none;stroke-opacity:1"
         d="M -43.957157,303.36221 C -123.7741,282.25122 -128.40117,188.84226 -128.40117,188.84226 c 0,0 44.983769,-15.24249 71.719576,37.59493 26.794846,52.95411 12.724437,76.92502 12.724437,76.92502 z"
         id="path8087"
         transform="matrix(-0.86602538,0.6271574,-0.398624,-0.86602539,41.249391,594.10017)" /><path
         style="fill:#abf0ff;fill-opacity:1;fill-rule:nonzero;stroke:#000000;stroke-width:0.264999;stroke-dasharray:none;stroke-opacity:1"
         d="M -43.957157,303.36221 C -123.7741,282.25122 -128.40117,188.84226 -128.40117,188.84226 c 0,0 44.983769,-15.24249 71.719576,37.59493 26.794846,52.95411 12.724437,76.92502 12.724437,76.92502 z"
         id="path8091"
         transform="rotate(180,-42.705345,304.94632)" /><path
         style="fill:#abf0ff;fill-opacity:1;fill-rule:nonzero;stroke:#000000;stroke-width:0.264999;stroke-dasharray:none;stroke-opacity:1"
         d="M -43.957157,303.36221 C -123.7741,282.25122 -128.40117,188.84226 -128.40117,188.84226 c 0,0 44.983769,-15.24249 71.719576,37.59493 26.794846,52.95411 12.724437,76.92502 12.724437,76.92502 z"
         id="path8095"
         transform="matrix(-0.86602542,-0.62715741,0.39862398,-0.86602537,-200.1575,539.51306)" /><path
         style="fill:#abf0ff;fill-opacity:1;fill-rule:nonzero;stroke:#000000;stroke-width:0.264999;stroke-dasharray:none;stroke-opacity:1"
         d="M -43.957157,303.36221 C -123.7741,282.25122 -128.40117,188.84226 -128.40117,188.84226 c 0,0 44.983769,-15.24249 71.719576,37.59493 26.794846,52.95411 12.724437,76.92502 12.724437,76.92502 z"
         id="path8099"
         transform="matrix(-0.5,-1.0862685,0.69043701,-0.49999998,-274.39121,409.82239)" /><path
         style="fill:#abf0ff;fill-opacity:1;fill-rule:nonzero;stroke:#000000;stroke-width:0.264999;stroke-dasharray:none;stroke-opacity:1"
         d="M -43.957157,303.36221 C -123.7741,282.25122 -128.40117,188.84226 -128.40117,188.84226 c 0,0 44.983769,-15.24249 71.719576,37.59493 26.794846,52.95411 12.724437,76.92502 12.724437,76.92502 z"
         id="path8103"
         transform="matrix(0,-1.2543148,0.79724803,1.9815434e-8,-285.0525,250.73155)" /><path
         style="fill:#abf0ff;fill-opacity:1;fill-rule:nonzero;stroke:#000000;stroke-width:0.264999;stroke-dasharray:none;stroke-opacity:1"
         d="M -43.957157,303.36221 C -123.7741,282.25122 -128.40117,188.84226 -128.40117,188.84226 c 0,0 44.983769,-15.24249 71.719576,37.59493 26.794846,52.95411 12.724437,76.92502 12.724437,76.92502 z"
         id="path8107"
         transform="matrix(0.49999999,-1.0862685,0.69043701,0.49999997,-232.62613,105.24845)" /><path
         style="fill:#abf0ff;fill-opacity:1;fill-rule:nonzero;stroke:#000000;stroke-width:0.264999;stroke-dasharray:none;stroke-opacity:1"
         d="M -43.957157,303.36221 C -123.7741,282.25122 -128.40117,188.84226 -128.40117,188.84226 c 0,0 44.983769,-15.24249 71.719576,37.59493 26.794846,52.95411 12.724437,76.92502 12.724437,76.92502 z"
         id="path8111"
         transform="matrix(0.86602538,-0.6271574,0.398624,0.86602539,-126.66007,15.79239)" /><path
         style="fill:#abf0ff;fill-opacity:1;stroke:#000000;stroke-width:0.264999;stroke-opacity:1"
         d="M -43.957157,303.36221 C -123.7741,282.25122 -128.40117,188.84226 -128.40117,188.84226 c 0,0 44.983769,-15.24249 71.719576,37.59493 26.794846,52.95411 12.724437,76.92502 12.724437,76.92502 z"
         id="path8115" /></g></g></svg>
