<?xml version="1.0" encoding="UTF-8" standalone="no"?>
<!-- Created with Inkscape (http://www.inkscape.org/) -->

<svg
   width="123.64011mm"
   height="124.22804mm"
   viewBox="0 0 123.64011 124.22805"
   version="1.1"
   id="svg5"
   xml:space="preserve"
   xmlns="http://www.w3.org/2000/svg"
   xmlns:svg="http://www.w3.org/2000/svg"><defs
     id="defs2" /><g
     id="layer1"
     transform="translate(-244.23919,-177.17964)"><g
       id="g21691"
       transform="translate(195.87716,30.207973)"
       style="fill:#ffe7ab;fill-opacity:1;fill-rule:nonzero;stroke:#000000;stroke-opacity:1"><path
         style="fill:#ffe7ab;fill-opacity:1;fill-rule:nonzero;stroke:#000000;stroke-width:0.264999;stroke-dasharray:none;stroke-opacity:1"
         d="m -43.957157,303.36221 c -35.76913,-8.59734 -63.319693,-38.25752 -75.028963,-72.39995 -4.93241,-13.54895 -8.27566,-27.73231 -9.41505,-42.12 25.50637,-7.70289 53.463371,5.9895 66.508206,28.46538 13.538058,23.56442 25.137822,51.17086 20.381494,78.87888 -0.570316,2.46028 -1.264036,4.92985 -2.445687,7.17569 z"
         id="path7379"
         transform="matrix(0.50703747,0,0,0.4042346,130.67667,86.901444)" /><path
         style="fill:#ffe7ab;fill-opacity:1;fill-rule:nonzero;stroke:#000000;stroke-width:0.264999;stroke-dasharray:none;stroke-opacity:1"
         d="m -43.957157,303.36221 c -35.76913,-8.59734 -63.319693,-38.25752 -75.028963,-72.39995 -4.93241,-13.54895 -8.27566,-27.73231 -9.41505,-42.12 25.50637,-7.70289 53.463371,5.9895 66.508206,28.46538 13.538058,23.56442 25.137822,51.17086 20.381494,78.87888 -0.570316,2.46028 -1.264036,4.92985 -2.445687,7.17569 z"
         id="path7383"
         transform="matrix(0.43910732,0.25351873,-0.2021173,0.35007743,189.48596,113.48358)" /><path
         style="fill:#ffe7ab;fill-opacity:1;fill-rule:nonzero;stroke:#000000;stroke-width:0.264999;stroke-dasharray:none;stroke-opacity:1"
         d="m -43.957157,303.36221 c -35.76913,-8.59734 -63.319693,-38.25752 -75.028963,-72.39995 -4.93241,-13.54895 -8.27566,-27.73231 -9.41505,-42.12 25.50637,-7.70289 53.463371,5.9895 66.508206,28.46538 13.538058,23.56442 25.137822,51.17086 20.381494,78.87888 -0.570316,2.46028 -1.264036,4.92985 -2.445687,7.17569 z"
         id="path7387"
         transform="matrix(0.25351873,0.43910732,-0.35007743,0.20211731,225.6472,167.21233)" /><path
         style="fill:#ffe7ab;fill-opacity:1;fill-rule:nonzero;stroke:#000000;stroke-width:0.264999;stroke-dasharray:none;stroke-opacity:1"
         d="m -43.957157,303.36221 c -35.76913,-8.59734 -63.319693,-38.25752 -75.028963,-72.39995 -4.93241,-13.54895 -8.27566,-27.73231 -9.41505,-42.12 25.50637,-7.70289 53.463371,5.9895 66.508206,28.46538 13.538058,23.56442 25.137822,51.17086 20.381494,78.87888 -0.570316,2.46028 -1.264036,4.92985 -2.445687,7.17569 z"
         id="path7391"
         transform="matrix(0,0.50703747,-0.4042346,0,232.03104,231.43375)" /><path
         style="fill:#ffe7ab;fill-opacity:1;fill-rule:nonzero;stroke:#000000;stroke-width:0.264999;stroke-dasharray:none;stroke-opacity:1"
         d="m -43.957157,303.36221 c -35.76913,-8.59734 -63.319693,-38.25752 -75.028963,-72.39995 -4.93241,-13.54895 -8.27566,-27.73231 -9.41505,-42.12 25.50637,-7.70289 53.463371,5.9895 66.508206,28.46538 13.538058,23.56442 25.137822,51.17086 20.381494,78.87888 -0.570316,2.46028 -1.264036,4.92985 -2.445687,7.17569 z"
         id="path7395"
         transform="matrix(-0.25351873,0.43910732,-0.35007743,-0.20211731,205.49023,289.17849)" /><path
         style="fill:#ffe7ab;fill-opacity:1;fill-rule:nonzero;stroke:#000000;stroke-width:0.264999;stroke-dasharray:none;stroke-opacity:1"
         d="m -43.957157,303.36221 c -35.76913,-8.59734 -63.319693,-38.25752 -75.028963,-72.39995 -4.93241,-13.54895 -8.27566,-27.73231 -9.41505,-42.12 25.50637,-7.70289 53.463371,5.9895 66.508206,28.46538 13.538058,23.56442 25.137822,51.17086 20.381494,78.87888 -0.570316,2.46028 -1.264036,4.92985 -2.445687,7.17569 z"
         id="path7399"
         transform="matrix(-0.43910734,0.25351873,-0.2021173,-0.35007743,153.06478,326.81777)" /><path
         style="fill:#ffe7ab;fill-opacity:1;fill-rule:nonzero;stroke:#000000;stroke-width:0.264999;stroke-dasharray:none;stroke-opacity:1"
         d="m -43.957157,303.36221 c -35.76913,-8.59734 -63.319693,-38.25752 -75.028963,-72.39995 -4.93241,-13.54895 -8.27566,-27.73231 -9.41505,-42.12 25.50637,-7.70289 53.463371,5.9895 66.508206,28.46538 13.538058,23.56442 25.137822,51.17086 20.381494,78.87888 -0.570316,2.46028 -1.264036,4.92985 -2.445687,7.17569 z"
         id="path7403"
         transform="matrix(-0.50703747,0,0,-0.4042346,88.453684,331.26994)" /><path
         style="fill:#ffe7ab;fill-opacity:1;fill-rule:nonzero;stroke:#000000;stroke-width:0.264999;stroke-dasharray:none;stroke-opacity:1"
         d="m -43.957157,303.36221 c -35.76913,-8.59734 -63.319693,-38.25752 -75.028963,-72.39995 -4.93241,-13.54895 -8.27566,-27.73231 -9.41505,-42.12 25.50637,-7.70289 53.463371,5.9895 66.508206,28.46538 13.538058,23.56442 25.137822,51.17086 20.381494,78.87888 -0.570316,2.46028 -1.264036,4.92985 -2.445687,7.17569 z"
         id="path7407"
         transform="matrix(-0.43910732,-0.25351873,0.20211731,-0.35007743,29.644397,304.6878)" /><path
         style="fill:#ffe7ab;fill-opacity:1;fill-rule:nonzero;stroke:#000000;stroke-width:0.264999;stroke-dasharray:none;stroke-opacity:1"
         d="m -43.957157,303.36221 c -35.76913,-8.59734 -63.319693,-38.25752 -75.028963,-72.39995 -4.93241,-13.54895 -8.27566,-27.73231 -9.41505,-42.12 25.50637,-7.70289 53.463371,5.9895 66.508206,28.46538 13.538058,23.56442 25.137822,51.17086 20.381494,78.87888 -0.570316,2.46028 -1.264036,4.92985 -2.445687,7.17569 z"
         id="path7411"
         transform="matrix(-0.25351873,-0.43910734,0.35007746,-0.2021173,-7.1920641,251.69652)" /><path
         style="fill:#ffe7ab;fill-opacity:1;fill-rule:nonzero;stroke:#000000;stroke-width:0.264999;stroke-dasharray:none;stroke-opacity:1"
         d="m -43.957157,303.36221 c -35.76913,-8.59734 -63.319693,-38.25752 -75.028963,-72.39995 -4.93241,-13.54895 -8.27566,-27.73231 -9.41505,-42.12 25.50637,-7.70289 53.463371,5.9895 66.508206,28.46538 13.538058,23.56442 25.137822,51.17086 20.381494,78.87888 -0.570316,2.46028 -1.264036,4.92985 -2.445687,7.17569 z"
         id="path7415"
         transform="matrix(0,-0.50703747,0.4042346,0,-13.575912,187.4751)" /><path
         style="fill:#ffe7ab;fill-opacity:1;fill-rule:nonzero;stroke:#000000;stroke-width:0.264999;stroke-dasharray:none;stroke-opacity:1"
         d="m -43.957157,303.36221 c -35.76913,-8.59734 -63.319693,-38.25752 -75.028963,-72.39995 -4.93241,-13.54895 -8.27566,-27.73231 -9.41505,-42.12 25.50637,-7.70289 53.463371,5.9895 66.508206,28.46538 13.538058,23.56442 25.137822,51.17086 20.381494,78.87888 -0.570316,2.46028 -1.264036,4.92985 -2.445687,7.17569 z"
         id="path7419"
         transform="matrix(0.25351873,-0.43910732,0.35007743,0.20211731,14.873943,129.29418)" /><path
         style="fill:#ffe7ab;fill-opacity:1;fill-rule:nonzero;stroke:#000000;stroke-width:0.264999;stroke-dasharray:none;stroke-opacity:1"
         d="m -43.957157,303.36221 c -35.76913,-8.59734 -63.319693,-38.25752 -75.028963,-72.39995 -4.93241,-13.54895 -8.27566,-27.73231 -9.41505,-42.12 25.50637,-7.70289 53.463371,5.9895 66.508206,28.46538 13.538058,23.56442 25.137822,51.17086 20.381494,78.87888 -0.570316,2.46028 -1.264036,4.92985 -2.445687,7.17569 z"
         id="path7423"
         transform="matrix(0.43910734,-0.25351873,0.2021173,0.35007746,67.299394,91.654906)" /></g></g></svg>
