<?xml version="1.0" encoding="UTF-8" standalone="no"?>
<!-- Created with Inkscape (http://www.inkscape.org/) -->

<svg
   width="124.82008mm"
   height="123.67284mm"
   viewBox="0 0 124.82008 123.67285"
   version="1.1"
   id="svg5"
   xml:space="preserve"
   xmlns="http://www.w3.org/2000/svg"
   xmlns:svg="http://www.w3.org/2000/svg"><defs
     id="defs2" /><g
     id="layer1"
     transform="translate(-390.63094,-175.09655)"><g
       id="g22157"
       style="fill:#ffe7ab;fill-opacity:1;stroke:#000000;stroke-opacity:1"
       transform="translate(332.02049,29.469274)"><path
         style="fill:#ffe7ab;fill-opacity:1;fill-rule:nonzero;stroke:#000000;stroke-width:0.264999;stroke-dasharray:none;stroke-opacity:1"
         d="M -43.957157,303.36221 C -123.7741,282.25122 -128.40117,188.84226 -128.40117,188.84226 c 0,0 28.499835,-0.49371 55.235642,52.34371 26.794846,52.95411 29.208371,62.17624 29.208371,62.17624 z"
         id="path9501"
         transform="matrix(0.50703747,0,0,0.4042346,142.09346,85.568646)" /><path
         style="fill:#ffe7ab;fill-opacity:1;fill-rule:nonzero;stroke:#000000;stroke-width:0.264999;stroke-dasharray:none;stroke-opacity:1"
         d="M -43.957157,303.36221 C -123.7741,282.25122 -128.40117,188.84226 -128.40117,188.84226 c 0,0 28.499835,-0.49371 55.235642,52.34371 26.794846,52.95411 29.208371,62.17624 29.208371,62.17624 z"
         id="path9505"
         transform="matrix(0.43910732,0.25351873,-0.2021173,0.35007743,200.90274,112.15078)" /><path
         style="fill:#ffe7ab;fill-opacity:1;fill-rule:nonzero;stroke:#000000;stroke-width:0.264999;stroke-dasharray:none;stroke-opacity:1"
         d="M -43.957157,303.36221 C -123.7741,282.25122 -128.40117,188.84226 -128.40117,188.84226 c 0,0 28.499835,-0.49371 55.235642,52.34371 26.794846,52.95411 29.208371,62.17624 29.208371,62.17624 z"
         id="path9509"
         transform="matrix(0.25351873,0.43910732,-0.35007743,0.20211731,237.06398,165.87953)" /><path
         style="fill:#ffe7ab;fill-opacity:1;fill-rule:nonzero;stroke:#000000;stroke-width:0.264999;stroke-dasharray:none;stroke-opacity:1"
         d="M -43.957157,303.36221 C -123.7741,282.25122 -128.40117,188.84226 -128.40117,188.84226 c 0,0 28.499835,-0.49371 55.235642,52.34371 26.794846,52.95411 29.208371,62.17624 29.208371,62.17624 z"
         id="path9513"
         transform="matrix(0,0.50703747,-0.4042346,0,243.44782,230.10095)" /><path
         style="fill:#ffe7ab;fill-opacity:1;fill-rule:nonzero;stroke:#000000;stroke-width:0.264999;stroke-dasharray:none;stroke-opacity:1"
         d="M -43.957157,303.36221 C -123.7741,282.25122 -128.40117,188.84226 -128.40117,188.84226 c 0,0 28.499835,-0.49371 55.235642,52.34371 26.794846,52.95411 29.208371,62.17624 29.208371,62.17624 z"
         id="path9517"
         transform="matrix(-0.25351873,0.43910732,-0.35007743,-0.20211731,216.90702,287.84569)" /><path
         style="fill:#ffe7ab;fill-opacity:1;fill-rule:nonzero;stroke:#000000;stroke-width:0.264999;stroke-dasharray:none;stroke-opacity:1"
         d="M -43.957157,303.36221 C -123.7741,282.25122 -128.40117,188.84226 -128.40117,188.84226 c 0,0 28.499835,-0.49371 55.235642,52.34371 26.794846,52.95411 29.208371,62.17624 29.208371,62.17624 z"
         id="path9521"
         transform="matrix(-0.43910734,0.25351873,-0.2021173,-0.35007743,163.32479,324.90659)" /><path
         style="fill:#ffe7ab;fill-opacity:1;fill-rule:nonzero;stroke:#000000;stroke-width:0.264999;stroke-dasharray:none;stroke-opacity:1"
         d="M -43.957157,303.36221 C -123.7741,282.25122 -128.40117,188.84226 -128.40117,188.84226 c 0,0 28.499835,-0.49371 55.235642,52.34371 26.794846,52.95411 29.208371,62.17624 29.208371,62.17624 z"
         id="path9525"
         transform="matrix(-0.50703747,0,0,-0.4042346,98.713702,329.35876)" /><path
         style="fill:#ffe7ab;fill-opacity:1;fill-rule:nonzero;stroke:#000000;stroke-width:0.264999;stroke-dasharray:none;stroke-opacity:1"
         d="M -43.957157,303.36221 C -123.7741,282.25122 -128.40117,188.84226 -128.40117,188.84226 c 0,0 28.499835,-0.49371 55.235642,52.34371 26.794846,52.95411 29.208371,62.17624 29.208371,62.17624 z"
         id="path9529"
         transform="matrix(-0.43910732,-0.25351873,0.20211731,-0.35007743,39.904421,302.77662)" /><path
         style="fill:#ffe7ab;fill-opacity:1;fill-rule:nonzero;stroke:#000000;stroke-width:0.264999;stroke-dasharray:none;stroke-opacity:1"
         d="M -43.957157,303.36221 C -123.7741,282.25122 -128.40117,188.84226 -128.40117,188.84226 c 0,0 28.499835,-0.49371 55.235642,52.34371 26.794846,52.95411 29.208371,62.17624 29.208371,62.17624 z"
         id="path9533"
         transform="matrix(-0.25351873,-0.43910734,0.35007746,-0.2021173,3.0679649,249.78534)" /><path
         style="fill:#ffe7ab;fill-opacity:1;fill-rule:nonzero;stroke:#000000;stroke-width:0.264999;stroke-dasharray:none;stroke-opacity:1"
         d="M -43.957157,303.36221 C -123.7741,282.25122 -128.40117,188.84226 -128.40117,188.84226 c 0,0 28.499835,-0.49371 55.235642,52.34371 26.794846,52.95411 29.208371,62.17624 29.208371,62.17624 z"
         id="path9537"
         transform="matrix(0,-0.50703747,0.4042346,0,-3.3159018,185.56392)" /><path
         style="fill:#ffe7ab;fill-opacity:1;fill-rule:nonzero;stroke:#000000;stroke-width:0.264999;stroke-dasharray:none;stroke-opacity:1"
         d="M -43.957157,303.36221 C -123.7741,282.25122 -128.40117,188.84226 -128.40117,188.84226 c 0,0 28.499835,-0.49371 55.235642,52.34371 26.794846,52.95411 29.208371,62.17624 29.208371,62.17624 z"
         id="path9541"
         transform="matrix(0.25351873,-0.43910732,0.35007743,0.20211731,25.13395,127.38299)" /><path
         style="fill:#ffe7ab;fill-opacity:1;fill-rule:nonzero;stroke:#000000;stroke-width:0.264999;stroke-dasharray:none;stroke-opacity:1"
         d="M -43.957157,303.36221 C -123.7741,282.25122 -128.40117,188.84226 -128.40117,188.84226 c 0,0 28.499835,-0.49371 55.235642,52.34371 26.794846,52.95411 29.208371,62.17624 29.208371,62.17624 z"
         id="path9545"
         transform="matrix(0.43910734,-0.25351873,0.2021173,0.35007746,78.716176,90.322108)" /></g></g></svg>
