<?xml version="1.0" encoding="UTF-8" standalone="no"?>
<!-- Created with Inkscape (http://www.inkscape.org/) -->

<svg
   width="124.82005mm"
   height="123.67285mm"
   viewBox="0 0 124.82005 123.67285"
   version="1.1"
   id="svg5"
   xml:space="preserve"
   xmlns="http://www.w3.org/2000/svg"
   xmlns:svg="http://www.w3.org/2000/svg"><defs
     id="defs2" /><g
     id="layer1"
     transform="translate(-394.22387,-26.36708)"><g
       id="g22195"
       style="fill:#abf0ff;fill-opacity:1;fill-rule:nonzero;stroke:#000000;stroke-width:1.0006;stroke-dasharray:none;stroke-opacity:1"
       transform="matrix(0.43910734,-0.25351873,0.2021173,0.35007746,414.32959,-28.93809)"><path
         style="fill:#abf0ff;fill-opacity:1;fill-rule:nonzero;stroke:#000000;stroke-width:0.264999;stroke-dasharray:none;stroke-opacity:1"
         d="M -43.957157,303.36221 C -123.7741,282.25122 -128.40117,188.84226 -128.40117,188.84226 c 0,0 28.499835,-0.49371 55.235642,52.34371 26.794846,52.95411 29.208371,62.17624 29.208371,62.17624 z"
         id="path9152"
         transform="matrix(0.86602542,0.62715741,-0.39862398,0.86602537,112.93654,68.207962)" /><path
         style="fill:#abf0ff;fill-opacity:1;fill-rule:nonzero;stroke:#000000;stroke-width:0.264999;stroke-dasharray:none;stroke-opacity:1"
         d="M -43.957157,303.36221 C -123.7741,282.25122 -128.40117,188.84226 -128.40117,188.84226 c 0,0 28.499835,-0.49371 55.235642,52.34371 26.794846,52.95411 29.208371,62.17624 29.208371,62.17624 z"
         id="path9156"
         transform="matrix(0.5,1.0862685,-0.690437,0.49999999,187.17024,197.89859)" /><path
         style="fill:#abf0ff;fill-opacity:1;fill-rule:nonzero;stroke:#000000;stroke-width:0.264999;stroke-dasharray:none;stroke-opacity:1"
         d="M -43.957157,303.36221 C -123.7741,282.25122 -128.40117,188.84226 -128.40117,188.84226 c 0,0 28.499835,-0.49371 55.235642,52.34371 26.794846,52.95411 29.208371,62.17624 29.208371,62.17624 z"
         id="path9160"
         transform="matrix(2.8407194e-8,1.2543148,-0.79724799,2.9916188e-8,195.95101,357.73418)" /><path
         style="fill:#abf0ff;fill-opacity:1;fill-rule:nonzero;stroke:#000000;stroke-width:0.264999;stroke-dasharray:none;stroke-opacity:1"
         d="M -43.957157,303.36221 C -123.7741,282.25122 -128.40117,188.84226 -128.40117,188.84226 c 0,0 28.499835,-0.49371 55.235642,52.34371 26.794846,52.95411 29.208371,62.17624 29.208371,62.17624 z"
         id="path9164"
         transform="matrix(-0.49999999,1.0862685,-0.69043701,-0.49999997,143.52462,503.21728)" /><path
         style="fill:#abf0ff;fill-opacity:1;fill-rule:nonzero;stroke:#000000;stroke-width:0.264999;stroke-dasharray:none;stroke-opacity:1"
         d="M -43.957157,303.36221 C -123.7741,282.25122 -128.40117,188.84226 -128.40117,188.84226 c 0,0 28.499835,-0.49371 55.235642,52.34371 26.794846,52.95411 29.208371,62.17624 29.208371,62.17624 z"
         id="path9168"
         transform="matrix(-0.86602538,0.6271574,-0.398624,-0.86602539,41.249384,594.10017)" /><path
         style="fill:#abf0ff;fill-opacity:1;fill-rule:nonzero;stroke:#000000;stroke-width:0.264999;stroke-dasharray:none;stroke-opacity:1"
         d="M -43.957157,303.36221 C -123.7741,282.25122 -128.40117,188.84226 -128.40117,188.84226 c 0,0 28.499835,-0.49371 55.235642,52.34371 26.794846,52.95411 29.208371,62.17624 29.208371,62.17624 z"
         id="path9172"
         transform="rotate(180,-43.408073,303.61134)" /><path
         style="fill:#abf0ff;fill-opacity:1;fill-rule:nonzero;stroke:#000000;stroke-width:0.264999;stroke-dasharray:none;stroke-opacity:1"
         d="M -43.957157,303.36221 C -123.7741,282.25122 -128.40117,188.84226 -128.40117,188.84226 c 0,0 28.499835,-0.49371 55.235642,52.34371 26.794846,52.95411 29.208371,62.17624 29.208371,62.17624 z"
         id="path9176"
         transform="matrix(-0.86602542,-0.62715741,0.39862398,-0.86602537,-201.5629,536.84314)" /><path
         style="fill:#abf0ff;fill-opacity:1;fill-rule:nonzero;stroke:#000000;stroke-width:0.264999;stroke-dasharray:none;stroke-opacity:1"
         d="M -43.957157,303.36221 C -123.7741,282.25122 -128.40117,188.84226 -128.40117,188.84226 c 0,0 28.499835,-0.49371 55.235642,52.34371 26.794846,52.95411 29.208371,62.17624 29.208371,62.17624 z"
         id="path9180"
         transform="matrix(-0.5,-1.0862685,0.69043701,-0.49999998,-275.79664,407.15246)" /><path
         style="fill:#abf0ff;fill-opacity:1;fill-rule:nonzero;stroke:#000000;stroke-width:0.264999;stroke-dasharray:none;stroke-opacity:1"
         d="M -43.957157,303.36221 C -123.7741,282.25122 -128.40117,188.84226 -128.40117,188.84226 c 0,0 28.499835,-0.49371 55.235642,52.34371 26.794846,52.95411 29.208371,62.17624 29.208371,62.17624 z"
         id="path9184"
         transform="matrix(0,-1.2543148,0.79724803,1.9815434e-8,-286.45792,248.06163)" /><path
         style="fill:#abf0ff;fill-opacity:1;fill-rule:nonzero;stroke:#000000;stroke-width:0.264999;stroke-dasharray:none;stroke-opacity:1"
         d="M -43.957157,303.36221 C -123.7741,282.25122 -128.40117,188.84226 -128.40117,188.84226 c 0,0 28.499835,-0.49371 55.235642,52.34371 26.794846,52.95411 29.208371,62.17624 29.208371,62.17624 z"
         id="path9188"
         transform="matrix(0.49999999,-1.0862685,0.69043701,0.49999997,-234.03154,102.57853)" /><path
         style="fill:#abf0ff;fill-opacity:1;fill-rule:nonzero;stroke:#000000;stroke-width:0.264999;stroke-dasharray:none;stroke-opacity:1"
         d="M -43.957157,303.36221 C -123.7741,282.25122 -128.40117,188.84226 -128.40117,188.84226 c 0,0 28.499835,-0.49371 55.235642,52.34371 26.794846,52.95411 29.208371,62.17624 29.208371,62.17624 z"
         id="path9192"
         transform="matrix(0.86602538,-0.6271574,0.398624,0.86602539,-128.06548,13.122473)" /><path
         style="fill:#abf0ff;fill-opacity:1;stroke:#000000;stroke-width:0.264999;stroke-opacity:1"
         d="M -43.957157,303.36221 C -123.7741,282.25122 -128.40117,188.84226 -128.40117,188.84226 c 0,0 28.499835,-0.49371 55.235642,52.34371 26.794846,52.95411 29.208371,62.17624 29.208371,62.17624 z"
         id="path9196" /></g></g></svg>
