<?xml version="1.0" encoding="UTF-8" standalone="no"?>
<!-- Created with Inkscape (http://www.inkscape.org/) -->

<svg
   width="200mm"
   height="200mm"
   viewBox="0 0 200 200"
   version="1.1"
   id="svg5"
   sodipodi:docname="Flower_1_ColorWhite_FormDefault.svg"
   inkscape:version="1.2.2 (b0a8486541, 2022-12-01)"
   xmlns:inkscape="http://www.inkscape.org/namespaces/inkscape"
   xmlns:sodipodi="http://sodipodi.sourceforge.net/DTD/sodipodi-0.dtd"
   xmlns="http://www.w3.org/2000/svg"
   xmlns:svg="http://www.w3.org/2000/svg">
  <sodipodi:namedview
     id="namedview6"
     pagecolor="#ffffff"
     bordercolor="#999999"
     borderopacity="1"
     inkscape:showpageshadow="0"
     inkscape:pageopacity="0"
     inkscape:pagecheckerboard="0"
     inkscape:deskcolor="#d1d1d1"
     inkscape:document-units="mm"
     showgrid="false"
     inkscape:zoom="1.3586354"
     inkscape:cx="205.35311"
     inkscape:cy="377.58474"
     inkscape:window-width="3840"
     inkscape:window-height="2076"
     inkscape:window-x="0"
     inkscape:window-y="0"
     inkscape:window-maximized="1"
     inkscape:current-layer="svg5" />
  <defs
     id="defs2" />
  <g
     id="layer1"
     style="fill:#fffcfc;fill-opacity:1;stroke:#000000;stroke-opacity:1">
    <path
       id="path2966"
       style="fill-opacity:1;stroke:#000000;stroke-width:0.270179;stroke-dasharray:none;stroke-opacity:1;fill:#fffcfc"
       d="M 115.13477,0.86553456 C 109.8828,0.84422316 102.50896,3.6557852 96.455709,6.3974813 91.18345,6.1424842 88.472774,0.99112256 81.02794,1.6140962 75.652831,2.0638767 69.869808,7.4800228 68.85355,20.327091 67.837291,33.174155 89.894268,77.442324 99.712155,99.446272 105.38648,71.74006 111.95931,53.941313 125.53544,23.204114 130.39952,12.191567 123.82757,3.9633427 118.97217,1.6140962 117.91004,1.1001988 116.60533,0.87150416 115.13477,0.86553456 Z M 148.65241,14.317011 c -4.09078,0.04936 -9.23201,2.017424 -15.01236,7.031126 -9.73531,8.444124 -25.06331,55.467535 -33.49911,78.037475 23.47766,-15.768018 40.64664,-23.843076 71.88241,-36.229116 11.19117,-4.437679 12.27844,-14.913091 10.46544,-19.993158 -1.81302,-5.080077 -11.42087,-9.449885 -19.40499,-12.383129 -3.57902,-3.87973 -1.8975,-9.453086 -7.64088,-14.230886 -1.68457,-1.40137 -3.99155,-2.266086 -6.79051,-2.232312 z M 47.867108,16.746747 c -1.765741,-0.02179 -3.373529,0.251097 -4.643545,0.704348 -5.08008,1.813018 -9.449884,11.419843 -12.383131,19.403972 -3.87973,3.579018 -9.453085,1.897505 -14.230882,7.640874 -3.44953,4.146661 -3.645318,12.06754 4.798809,21.802866 8.444128,9.735326 55.468569,25.064351 78.038502,33.500155 C 83.678837,76.321275 75.602756,59.151287 63.216718,27.915523 59.888461,19.522136 53.164339,16.812131 47.867108,16.746747 Z M 178.7347,68.12805 c -13.60197,-0.189824 -56.66236,21.681583 -78.24416,31.519762 27.75088,5.451568 45.60253,11.881688 76.4478,25.210458 11.05125,4.77545 19.22638,-1.86292 21.53656,-6.73704 2.31016,-4.87417 -1.39388,-14.75765 -4.9654,-22.477392 0.21265,-5.274141 5.34277,-8.026217 4.66,-15.465807 -0.49295,-5.371319 -5.95484,-11.11023 -18.80965,-12.023246 -0.20086,-0.01433 -0.40927,-0.02372 -0.62515,-0.02675 z M 15.359207,73.373118 c -7.0698549,0.08089 -12.1013582,4.728694 -13.8339824,8.384295 -2.31016062,4.874155 1.3928412,14.75764 4.9643567,22.477387 -0.2126338,5.27413 -5.3427598,8.02622 -4.6599953,15.4658 0.4929439,5.37133 5.9558648,11.11127 18.810675,12.0243 12.854816,0.913 56.943924,-21.49974 78.868296,-31.49407 C 71.757652,94.779262 53.907048,88.34913 23.061775,75.020365 20.298956,73.826501 17.715824,73.346158 15.359207,73.373118 Z m 85.194053,26.707572 c 15.768,23.47771 23.84409,40.64667 36.23014,71.88242 4.43766,11.19121 14.91205,12.27847 19.99212,10.46547 5.08007,-1.81302 9.44988,-11.42087 12.38313,-19.40499 3.87973,-3.57902 9.4531,-1.8975 14.23089,-7.64088 3.44953,-4.14666 3.64532,-12.06755 -4.79881,-21.80288 -8.44413,-9.73532 -55.46754,-25.06331 -78.03747,-33.49914 z m -0.26223,0.34961 c -5.451548,27.75092 -11.881672,45.60153 -25.210441,76.44679 -4.775449,11.0513 1.862913,19.22743 6.73705,21.53759 4.874147,2.31018 14.757634,-1.39387 22.477381,-4.96539 5.27414,0.21264 8.02622,5.34277 15.46582,4.66 5.37131,-0.49294 11.11124,-5.95482 12.02427,-18.80964 0.91301,-12.85483 -21.49973,-56.94497 -31.49408,-78.86935 z m -0.431836,0.0626 c -23.477699,15.76802 -40.647685,23.8431 -71.883445,36.22914 -11.191184,4.43769 -12.27743,14.9131 -10.464432,19.99316 1.813019,5.08006 11.419847,9.44989 19.403976,12.38313 3.579018,3.87973 1.897501,9.4531 7.640872,14.23088 4.14666,3.44954 12.067539,3.6453 21.802866,-4.79882 9.735329,-8.44413 25.064358,-55.46753 33.500163,-78.03748 z" />
  </g>
</svg>
